<svg data-v-423bf9ae="" xmlns="http://www.w3.org/2000/svg" viewBox="0 0 204.91230053124127 60" class="font"><!----><!----><!----><g data-v-423bf9ae="" id="0b8a9f31-26fb-4790-97bb-662ea438c067" fill="black" transform="matrix(5.847953629488579,0,0,5.847953629488579,-0.40935669714228595,-21.75438838426455)"><path d="M9.53 5.51L9.53 5.51L9.53 5.51Q9.45 5.99 9.25 6.19L9.25 6.19L9.25 6.19Q9.06 6.40 8.57 6.40L8.57 6.40L8.57 6.40Q8.09 6.40 7.77 6.04L7.77 6.04L7.77 5.08L7.77 5.08Q6.97 5.14 5.95 5.16L5.95 5.16L5.95 11.06L5.95 11.06Q5.95 12.63 6.12 13.80L6.12 13.80L6.12 13.80Q5.58 13.98 4.77 13.98L4.77 13.98L4.77 13.98Q3.96 13.98 3.67 13.80L3.67 13.80L3.85 11.60L3.85 5.16L1.91 5.09L1.91 6.04L1.91 6.04Q1.82 6.17 1.58 6.29L1.58 6.29L1.58 6.29Q1.34 6.40 0.98 6.40L0.98 6.40L0.98 6.40Q0.62 6.40 0.42 6.19L0.42 6.19L0.42 6.19Q0.23 5.99 0.15 5.52L0.15 5.52L0.15 5.52Q0.07 5.06 0.07 4.56L0.07 4.56L0.07 4.56Q0.07 4.05 0.20 3.92L0.20 3.92L0.20 3.92Q1.93 4.00 4.59 4.00L4.59 4.00L4.59 4.00Q7.25 4.00 9.47 3.92L9.47 3.92L9.47 3.92Q9.60 4.05 9.60 4.55L9.60 4.55L9.60 4.55Q9.60 5.04 9.53 5.51ZM17.05 11.46L17.05 11.46Q17.55 11.46 17.76 11.87L17.76 11.87L17.76 11.87Q17.97 12.27 17.97 13.06L17.97 13.06L17.97 13.06Q17.97 13.84 17.86 13.94L17.86 13.94L17.86 13.94Q15.44 13.84 13.43 13.82L13.43 13.82L13.43 13.82Q11.42 13.81 10.85 13.80L10.85 13.80L10.85 13.80Q11.05 12.17 11.05 10.19L11.05 10.19L11.05 5.76L11.05 5.76Q11.05 5.17 10.86 5.00L10.86 5.00L10.86 5.00Q10.78 4.92 10.62 4.87L10.62 4.87L10.62 4.87Q10.52 4.73 10.52 4.43L10.52 4.43L10.52 4.43Q10.52 4.12 10.54 4.00L10.54 4.00L10.54 4.00Q11.15 3.99 12.25 3.99L12.25 3.99L12.25 3.99Q13.35 3.98 13.95 3.97L13.95 3.97L13.95 3.97Q15.64 3.95 17.86 3.86L17.86 3.86L17.86 3.86Q17.97 3.96 17.97 4.74L17.97 4.74L17.97 4.74Q17.97 5.53 17.76 5.93L17.76 5.93L17.76 5.93Q17.55 6.34 16.97 6.34L16.97 6.34L16.97 6.34Q16.39 6.34 16.15 5.97L16.15 5.97L16.15 5.15L16.15 5.15Q14.16 5.05 12.97 5.05L12.97 5.05L12.97 5.05Q13.15 5.80 13.15 6.90L13.15 6.90L13.15 6.90Q13.15 6.98 13.15 7.05L13.15 7.05L13.15 8.33L16.08 8.18L16.08 8.18Q16.19 8.31 16.19 8.70L16.19 8.70L16.19 8.70Q16.19 9.09 16.13 9.50L16.13 9.50L16.13 9.50Q15.75 9.56 15.06 9.56L15.06 9.56L15.06 9.56Q14.36 9.56 13.15 9.42L13.15 9.42L13.15 10.75L13.15 10.75Q13.15 10.83 13.15 10.91L13.15 10.91L13.15 10.91Q13.15 12.01 12.97 12.75L12.97 12.75L12.97 12.75Q14.16 12.75 16.15 12.65L16.15 12.65L16.15 11.83L16.15 11.83Q16.27 11.60 16.69 11.50L16.69 11.50L16.69 11.50Q16.85 11.46 17.05 11.46L17.05 11.46ZM21.95 5.05L21.95 5.05L21.95 5.05Q22.12 5.85 22.12 6.91L22.12 6.91L22.12 6.91Q22.12 6.99 22.12 7.05L22.12 7.05L22.10 8.33L24.78 8.18L24.78 8.18Q24.89 8.31 24.89 8.71L24.89 8.71L24.89 8.71Q24.89 9.11 24.82 9.50L24.82 9.50L24.82 9.50Q24.45 9.56 23.84 9.56L23.84 9.56L23.84 9.56Q23.24 9.56 22.10 9.42L22.10 9.42L22.09 11.37L22.09 11.37Q22.09 12.71 22.27 13.80L22.27 13.80L22.27 13.80Q21.69 13.98 20.86 13.98L20.86 13.98L20.86 13.98Q20.03 13.98 19.81 13.80L19.81 13.80L19.81 13.80Q20.02 11.98 20.02 9.50L20.02 9.50L20.02 5.76L20.02 5.76Q20.02 5.30 19.89 5.14L19.89 5.14L19.89 5.14Q19.76 4.98 19.41 4.87L19.41 4.87L19.41 4.87Q19.31 4.73 19.31 4.43L19.31 4.43L19.31 4.43Q19.31 4.12 19.33 4.00L19.33 4.00L19.33 4.00Q19.91 3.99 20.98 3.99L20.98 3.99L20.98 3.99Q22.05 3.98 22.58 3.97L22.58 3.97L22.58 3.97Q24.06 3.95 26.30 3.86L26.30 3.86L26.30 3.86Q26.41 3.96 26.41 4.74L26.41 4.74L26.41 4.74Q26.41 5.53 26.20 5.93L26.20 5.93L26.20 5.93Q25.99 6.34 25.41 6.34L25.41 6.34L25.41 6.34Q24.83 6.34 24.60 5.97L24.60 5.97L24.60 5.15L24.60 5.15Q22.60 5.05 21.95 5.05ZM32.46 9.80L32.49 11.06L32.49 11.06Q32.49 11.94 32.79 13.80L32.79 13.80L32.79 13.80Q32.27 13.98 31.45 13.98L31.45 13.98L31.45 13.98Q30.63 13.98 30.34 13.80L30.34 13.80L30.47 11.60L30.52 9.65L30.52 9.65Q29.12 7.13 28.71 6.54L28.71 6.54L28.71 6.54Q27.97 5.47 27.62 5.25L27.62 5.25L27.62 5.25Q27.49 5.16 26.95 5.12L26.95 5.12L26.95 5.12Q26.83 4.79 26.85 4.56L26.85 4.56L26.85 4.56Q27.41 4.25 27.85 4.13L27.85 4.13L27.85 4.13Q28.29 4.01 28.66 4.01L28.66 4.01L28.66 4.01Q29.03 4.01 29.13 4.01L29.13 4.01L29.13 4.01Q29.16 4.04 29.34 4.21L29.34 4.21L29.34 4.21Q29.52 4.38 29.65 4.52L29.65 4.52L29.65 4.52Q29.79 4.67 30.06 5.04L30.06 5.04L30.06 5.04Q30.32 5.41 30.57 5.84L30.57 5.84L30.57 5.84Q31.18 6.93 31.85 8.67L31.85 8.67L31.85 8.67Q33.33 5.35 33.39 4.70L33.39 4.70L33.39 4.70Q33.40 4.59 33.40 4.34L33.40 4.34L33.40 4.34Q33.40 4.09 33.28 3.90L33.28 3.90L33.28 3.90Q33.28 3.83 33.48 3.78L33.48 3.78L33.48 3.78Q33.67 3.72 33.88 3.72L33.88 3.72L33.88 3.72Q34.49 3.72 34.80 4.10L34.80 4.10L34.80 4.10Q35.11 4.49 35.11 4.92L35.11 4.92L35.11 4.92Q35.11 5.34 34.95 5.74L34.95 5.74L34.95 5.74Q34.79 6.13 34.50 6.55L34.50 6.55L34.50 6.55Q34.21 6.97 33.89 7.42L33.89 7.42L33.89 7.42Q33.00 8.63 32.46 9.80L32.46 9.80Z"></path></g><!----><!----></svg>